<?xml version="1.0" encoding="UTF-8"?><svg id="uuid-67fd74dd-9f99-4f74-afc1-c698adc58343" xmlns="http://www.w3.org/2000/svg" width="16" height="16" viewBox="0 0 16 16"><g><polygon points="4.08 15.88 .14 8 4.08 .12 11.92 .12 15.86 8 11.92 15.88 4.08 15.88" fill="#d1d1e9"/><path d="M11.85,.25l3.88,7.75-3.88,7.75H4.16L.28,8,4.16,.25h7.69m.15-.25H4L0,8l4,8H12l4-8L12,0h0Z" fill="#2b2c34"/></g><path d="M4.15,7.36v-.07c.11-.03,.18-.07,.22-.15,.04-.07,.06-.19,.06-.34V3.12c0-.15-.02-.27-.06-.34s-.11-.12-.22-.15v-.07h1.47c.68,0,1.2,.11,1.54,.34s.51,.55,.51,.98-.18,.77-.52,1.01-.86,.36-1.53,.36h-.32v1.51c0,.17,.03,.3,.08,.37,.05,.08,.15,.13,.29,.16v.07h-1.53Zm1.15-2.28h.32c.39,0,.68-.11,.86-.32s.28-.51,.28-.89-.09-.65-.28-.85c-.18-.19-.47-.29-.87-.29h-.32v2.35h0Z" fill="#2b2c34"/><path d="M10.21,13.48c-.25,0-.47-.03-.65-.1s-.33-.16-.44-.29-.15-.27-.15-.44c0-.1,.02-.17,.08-.23,.05-.06,.12-.09,.21-.09s.16,.02,.21,.08,.08,.14,.09,.26c.03,.23,.09,.4,.17,.5,.08,.1,.21,.15,.38,.15,.2,0,.35-.09,.45-.28,.09-.19,.14-.48,.14-.87v-2.95c0-.17-.02-.3-.08-.37s-.15-.13-.3-.16v-.07h1.53v.07c-.1,.02-.17,.07-.22,.15s-.06,.19-.06,.34v2.96c0,.9-.45,1.35-1.35,1.35h0Z" fill="#2b2c34"/><line x1="4.15" y1="11.85" x2="11.85" y2="4.15" fill="none" stroke="#2b2c34" stroke-linecap="round" stroke-miterlimit="10"/></svg>