<?xml version="1.0" encoding="UTF-8"?><svg id="uuid-91d06241-d0af-480b-a0c0-813112033c78" xmlns="http://www.w3.org/2000/svg" width="96" height="96" viewBox="0 0 96 96"><g><polygon points="24.56 95.25 .84 47.81 24.56 .37 71.82 .37 95.54 47.81 71.82 95.25 24.56 95.25" fill="#d1d1e9"/><path d="M71.36,1.12l23.34,46.69-23.34,46.69H25.03L1.69,47.81,25.03,1.12h46.33m.93-1.51H24.1L0,47.81l24.1,48.19h48.19l24.1-48.19L72.29-.39h0Z" fill="#2b2c34"/></g><path d="M25.01,43.94v-.44c.63-.15,1.07-.44,1.31-.89,.24-.45,.36-1.13,.36-2.05V18.4c0-.92-.12-1.6-.36-2.05s-.68-.74-1.31-.89v-.44h8.84c4.11,0,7.2,.68,9.26,2.03s3.09,3.31,3.09,5.87-1.05,4.65-3.15,6.11-5.17,2.18-9.19,2.18h-1.9v9.07c0,1.04,.15,1.78,.48,2.24,.32,.47,.9,.8,1.76,.99v.44h-9.19l-.02-.03Zm6.94-13.72h1.9c2.33,0,4.07-.65,5.2-1.93s1.7-3.07,1.7-5.38-.56-3.95-1.66-5.12c-1.11-1.16-2.86-1.75-5.24-1.75h-1.9v14.17Z" fill="#2b2c34"/><path d="M61.51,80.79c-1.49,0-2.8-.21-3.93-.63s-1.99-.99-2.62-1.75-.93-1.63-.93-2.64c0-.57,.15-1.04,.47-1.39,.32-.35,.74-.53,1.25-.53s.96,.15,1.25,.47,.47,.84,.56,1.55c.17,1.42,.51,2.41,1.01,3,.5,.59,1.25,.89,2.26,.89,1.23,0,2.14-.56,2.7-1.69,.56-1.11,.84-2.86,.84-5.23v-17.79c0-1.04-.15-1.78-.47-2.24s-.9-.78-1.78-.99v-.44h9.2v.44c-.6,.15-1.04,.44-1.3,.89s-.39,1.13-.39,2.05v17.83c0,5.44-2.73,8.16-8.16,8.16l.05,.03Z" fill="#2b2c34"/><line x1="25.01" y1="70.99" x2="71.37" y2="24.63" fill="none" stroke="#2b2c34" stroke-linecap="round" stroke-miterlimit="10"/></svg>