<?xml version="1.0" encoding="UTF-8"?><svg id="uuid-d4d04207-a495-4534-8311-299e2eb938e2" xmlns="http://www.w3.org/2000/svg" width="64" height="64" viewBox="0 0 64 64"><g><polygon points="16.31 63.5 .56 32 16.31 .5 47.69 .5 63.44 32 47.69 63.5 16.31 63.5" fill="#d1d1e9"/><path d="M47.38,1l15.5,31-15.5,31H16.62L1.12,32,16.62,1h30.76m.62-1H16L0,32l16,32H48l16-32L48,0h0Z" fill="#2b2c34"/></g><path d="M16.61,29.43v-.29c.42-.1,.71-.29,.87-.59,.16-.3,.24-.75,.24-1.36V12.47c0-.61-.08-1.06-.24-1.36s-.45-.49-.87-.59v-.29h5.87c2.73,0,4.78,.45,6.15,1.35s2.05,2.2,2.05,3.9-.7,3.09-2.09,4.06c-1.39,.97-3.43,1.45-6.1,1.45h-1.26v6.02c0,.69,.1,1.18,.32,1.49,.21,.31,.6,.53,1.17,.66v.29h-6.1Zm4.61-9.11h1.26c1.55,0,2.7-.43,3.45-1.28s1.13-2.04,1.13-3.57-.37-2.62-1.1-3.4c-.74-.77-1.9-1.16-3.48-1.16h-1.26v9.4Z" fill="#2b2c34"/><path d="M40.84,53.9c-.99,0-1.86-.14-2.61-.42-.75-.28-1.32-.66-1.74-1.16s-.62-1.08-.62-1.75c0-.38,.1-.69,.31-.92,.21-.23,.49-.35,.83-.35s.64,.1,.83,.31,.31,.56,.37,1.03c.11,.94,.34,1.6,.67,1.99,.33,.39,.83,.59,1.5,.59,.82,0,1.42-.37,1.79-1.12,.37-.74,.56-1.9,.56-3.47v-11.81c0-.69-.1-1.18-.31-1.49s-.6-.52-1.18-.66v-.29h6.11v.29c-.4,.1-.69,.29-.86,.59s-.26,.75-.26,1.36v11.84c0,3.61-1.81,5.42-5.42,5.42Z" fill="#2b2c34"/><line x1="16.61" y1="47.39" x2="47.39" y2="16.61" fill="none" stroke="#2b2c34" stroke-linecap="round" stroke-miterlimit="10"/></svg>